<?xml version="1.0" encoding="UTF-8" standalone="no"?>
<!-- Uploaded to: SVG Repo, www.svgrepo.com, Generator: SVG Repo Mixer Tools -->

<svg
   width="800px"
   height="800px"
   viewBox="0 0 24 24"
   fill="none"
   version="1.1"
   id="svg1"
   sodipodi:docname="back-svgrepo-com.svg"
   inkscape:version="1.4 (86a8ad7, 2024-10-11)"
   xmlns:inkscape="http://www.inkscape.org/namespaces/inkscape"
   xmlns:sodipodi="http://sodipodi.sourceforge.net/DTD/sodipodi-0.dtd"
   xmlns="http://www.w3.org/2000/svg"
   xmlns:svg="http://www.w3.org/2000/svg">
  <defs
     id="defs1" />
  <sodipodi:namedview
     id="namedview1"
     pagecolor="#ffffff"
     bordercolor="#000000"
     borderopacity="0.25"
     inkscape:showpageshadow="2"
     inkscape:pageopacity="0.0"
     inkscape:pagecheckerboard="0"
     inkscape:deskcolor="#d1d1d1"
     inkscape:zoom="0.69125"
     inkscape:cx="400"
     inkscape:cy="400"
     inkscape:window-width="1366"
     inkscape:window-height="697"
     inkscape:window-x="-8"
     inkscape:window-y="-8"
     inkscape:window-maximized="1"
     inkscape:current-layer="svg1" />
  <path
     d="M4 10L3.29289 10.7071L2.58579 10L3.29289 9.29289L4 10ZM21 18C21 18.5523 20.5523 19 20 19C19.4477 19 19 18.5523 19 18L21 18ZM8.29289 15.7071L3.29289 10.7071L4.70711 9.29289L9.70711 14.2929L8.29289 15.7071ZM3.29289 9.29289L8.29289 4.29289L9.70711 5.70711L4.70711 10.7071L3.29289 9.29289ZM4 9L14 9L14 11L4 11L4 9ZM21 16L21 18L19 18L19 16L21 16ZM14 9C17.866 9 21 12.134 21 16L19 16C19 13.2386 16.7614 11 14 11L14 9Z"
     fill="#33363F"
     id="path1"
     style="fill:#000000;fill-opacity:1" />
</svg>
