<?xml version="1.0" encoding="UTF-8" standalone="no"?>
<!-- Uploaded to: SVG Repo, www.svgrepo.com, Generator: SVG Repo Mixer Tools -->

<svg
   fill="#000000"
   height="850"
   width="850"
   version="1.1"
   id="Layer_1"
   viewBox="0 0 544 544"
   xml:space="preserve"
   sodipodi:docname="gears.svg"
   inkscape:version="1.4 (86a8ad7, 2024-10-11)"
   xmlns:inkscape="http://www.inkscape.org/namespaces/inkscape"
   xmlns:sodipodi="http://sodipodi.sourceforge.net/DTD/sodipodi-0.dtd"
   xmlns="http://www.w3.org/2000/svg"
   xmlns:svg="http://www.w3.org/2000/svg"><defs
   id="defs4" /><sodipodi:namedview
   id="namedview4"
   pagecolor="#ffffff"
   bordercolor="#000000"
   borderopacity="0.25"
   inkscape:showpageshadow="2"
   inkscape:pageopacity="0.0"
   inkscape:pagecheckerboard="0"
   inkscape:deskcolor="#d1d1d1"
   inkscape:zoom="0.48878756"
   inkscape:cx="236.29897"
   inkscape:cy="440.88683"
   inkscape:window-width="1366"
   inkscape:window-height="697"
   inkscape:window-x="-8"
   inkscape:window-y="-8"
   inkscape:window-maximized="1"
   inkscape:current-layer="Layer_1" />
<g
   id="g2"
   transform="translate(15.99992,15.99984)">
	<g
   id="g1">
		<path
   d="m 256,151.972 c -56.436,0 -102.35,45.913 -102.35,102.349 0,56.436 45.915,102.35 102.35,102.35 56.435,0 102.35,-45.915 102.35,-102.35 0,-56.435 -45.914,-102.349 -102.35,-102.349 z"
   id="path1" />
	</g>
</g>
<g
   id="g4">
	<g
   id="g3"
   transform="translate(15.9998,16)">
		<path
   d="m 488.727,192.188 h -15.099 c -4.881,-16.342 -11.414,-32.361 -19.025,-46.584 l 11.205,-11.371 c 8.707,-8.802 8.677,-23.069 -0.069,-31.834 L 408.14,44.498 c -4.225,-4.236 -9.962,-6.961 -15.943,-6.961 -0.044,0 -0.089,0 -0.132,0 -6.028,0 -11.79,2.833 -15.997,7.15 L 365.709,55.663 C 351.612,48.009 336.252,41.603 320.56,36.839 V 22.522 C 320.561,10.084 310.478,0 298.039,0 H 213.957 C 201.519,0 191.435,10.084 191.435,22.522 V 36.831 C 175.68,41.603 160.29,47.867 146.199,55.512 L 135.51,44.529 c -4.216,-4.276 -9.967,-6.992 -15.973,-6.992 -0.021,0 -0.042,0 -0.065,0 -5.983,0 -11.722,2.665 -15.949,6.904 l -57.436,57.883 c -8.719,8.743 -8.772,22.876 -0.12,31.685 l 11.383,11.588 c -7.585,14.201 -14.108,30.195 -18.989,46.591 h -15.09 c -12.438,0 -22.522,10.084 -22.522,22.522 v 82.581 c 0,12.438 10.084,22.522 22.522,22.522 h 15.156 c 4.736,15.51 11.114,30.738 18.749,44.765 L 46.46,375.05 c -4.311,4.213 -6.754,9.977 -6.781,16.004 -0.027,6.027 2.362,11.814 6.633,16.066 l 57.599,57.333 c 4.275,4.254 10.094,6.647 16.106,6.558 6.031,-0.059 11.786,-2.533 15.977,-6.869 l 10.38,-10.739 c 13.985,7.543 29.313,13.883 45.062,18.63 v 17.444 c 0,12.438 10.084,22.522 22.522,22.522 h 84.082 c 12.438,0 22.522,-10.084 22.522,-22.522 v -17.459 c 15.753,-4.772 31.145,-11 45.236,-18.645 l 10.689,11.021 c 4.218,4.276 9.968,7.066 15.974,7.066 0.021,0 0.042,0 0.065,0 5.983,0 11.722,-2.739 15.949,-6.977 l 57.436,-57.958 c 4.284,-4.294 6.653,-10.135 6.572,-16.201 -0.08,-6.064 -2.604,-11.841 -6.998,-16.021 l -10.467,-9.955 c 7.542,-13.929 13.857,-29.076 18.564,-44.536 h 15.145 c 12.438,0 22.522,-10.084 22.522,-22.522 v -82.58 c 0,-12.438 -10.084,-22.522 -22.522,-22.522 z M 256,394.208 c -77.135,0 -139.887,-62.752 -139.887,-139.887 0,-77.133 62.752,-139.886 139.887,-139.886 77.135,0 139.887,62.754 139.887,139.886 0,77.135 -62.752,139.887 -139.887,139.887 z"
   id="path2" />
	</g>
</g>
</svg>
