<?xml version="1.0" encoding="UTF-8" standalone="no"?>
<!-- Created with Inkscape (http://www.inkscape.org/) -->

<svg
   version="1.1"
   id="svg1"
   width="225"
   height="225"
   viewBox="0 0 225 225"
   sodipodi:docname="moray_logo.svg"
   inkscape:version="1.4 (86a8ad7, 2024-10-11)"
   xmlns:inkscape="http://www.inkscape.org/namespaces/inkscape"
   xmlns:sodipodi="http://sodipodi.sourceforge.net/DTD/sodipodi-0.dtd"
   xmlns="http://www.w3.org/2000/svg"
   xmlns:svg="http://www.w3.org/2000/svg"
   xmlns:rdf="http://www.w3.org/1999/02/22-rdf-syntax-ns#"
   xmlns:cc="http://creativecommons.org/ns#"
   xmlns:dc="http://purl.org/dc/elements/1.1/">
  <title
     id="title87">logoVectorización</title>
  <defs
     id="defs1">
    <clipPath
       clipPathUnits="userSpaceOnUse"
       id="clipPath54">
      <path
         id="path54"
         style="fill:#ff0000;fill-opacity:1;fill-rule:nonzero;stroke:none"
         d="M 43.007812,62.568359 V 149 H 189 V 62.568359 Z m 97.861328,16.732422 c 0.29262,-0.004 0.60773,0.01879 0.94531,0.07227 0.17074,0.02705 0.3408,0.05416 0.51172,0.08008 0.26452,0.0392 0.53194,0.06024 0.79883,0.07227 0.21456,0.0079 0.42995,0.01954 0.64453,0.02344 4.37429,0.07927 4.37493,4.445392 0,4.419922 -0.26845,-0.0016 -0.53643,-0.01754 -0.80469,-0.02734 -0.4141,-0.01562 -0.82759,-0.05519 -1.23828,-0.109375 -0.20159,-0.02955 -0.40228,-0.06187 -0.60351,-0.09375 -3.98353,-0.631056 -3.70684,-4.390329 -0.25391,-4.4375 z" />
    </clipPath>
  </defs>
  <sodipodi:namedview
     id="namedview1"
     pagecolor="#ffffff"
     bordercolor="#000000"
     borderopacity="0.25"
     inkscape:showpageshadow="2"
     inkscape:pageopacity="0.0"
     inkscape:pagecheckerboard="true"
     inkscape:deskcolor="#d1d1d1"
     showgrid="false"
     inkscape:zoom="2.8284271"
     inkscape:cx="112.96031"
     inkscape:cy="135.94128"
     inkscape:window-width="1366"
     inkscape:window-height="697"
     inkscape:window-x="-8"
     inkscape:window-y="-8"
     inkscape:window-maximized="1"
     inkscape:current-layer="g87" />
  <g
     inkscape:groupmode="layer"
     id="layer1"
     inkscape:label="Image 1"
     style="display:inline">
    <g
       id="g87"
       inkscape:label="newLogo">
      <g
         id="g86"
         inkscape:label="others">
        <path
           style="display:inline;fill:#4cac33;fill-opacity:1;stroke-width:2.07968;stroke-linejoin:round;stroke-dasharray:none"
           d="m 180.5,129.2472 c -2.21213,-0.39183 -3.65026,-1.24429 -4.93028,-2.92244 -0.69205,-0.90729 -0.69482,-0.92675 -0.72111,-5.05528 -0.0145,-2.27946 -0.16028,-5.26948 -0.32393,-6.64448 -0.5474,-4.59942 -3.0647,-19.495685 -3.35344,-19.844258 -0.44234,-0.53398 -6.9466,-4.765357 -10.40827,-6.771145 -4.1455,-2.402015 -6.1847,-3.403563 -7.37017,-3.619835 -0.5402,-0.09855 -1.8902,-0.552836 -3,-1.009517 -3.19173,-1.313399 -10.11029,-2.655857 -29.0178,-5.630528 -15.02165,-2.363319 -19.82732,-3.173158 -22.431275,-3.780063 l -2.181275,-0.50839 -2.007948,0.507767 C 90.02022,75.16623 83.776242,78.400204 73.75,84.847996 63.955126,91.146997 63.836669,91.239487 62.873846,93.340102 60.490025,98.540937 57.75,108.4381 57.75,111.84779 c 0,1.70211 -0.109536,2.27385 -0.639306,3.33696 -1.254776,2.518 -3.806015,4.14947 -6.49838,4.15557 -2.547426,0.006 -6.287809,-2.07223 -7.62527,-4.23628 -0.498205,-0.80612 -0.523408,-0.99683 -0.251612,-1.904 0.166128,-0.55449 1.021106,-2.20446 1.899952,-3.6666 2.039944,-3.39387 4.204403,-8.47152 7.101029,-16.65844 l 2.299773,-6.5 6.150168,-3.875 C 73.36559,74.196236 81.22303,68.794153 84.693582,65.650986 c 2.41851,-2.190365 3.472043,-2.706362 5.811163,-2.846182 1.723987,-0.10305 2.15901,-0.01833 5.25,1.022439 4.809125,1.619283 13.947075,3.319632 30.370255,5.651164 14.68962,2.085425 22.79692,2.879804 26.8947,2.635228 2.13926,-0.127682 3.06,-0.09033 3.50359,0.142133 0.33094,0.173432 1.50171,1.174348 2.60171,2.224257 2.77976,2.653178 6.08378,5.099975 13.29724,9.847281 3.41152,2.245181 6.88795,4.654196 7.72541,5.353371 l 1.52265,1.271225 0.53748,2.711548 c 0.29561,1.491352 1.04552,5.6928 1.66647,9.33655 1.82352,10.70045 2.9623,15.43798 4.34083,18.05862 1.0827,2.05824 1.22793,3.38482 0.52869,4.82925 -1.17299,2.42307 -4.91673,3.94864 -8.24377,3.35933 z m 3.74175,-2.11794 c 2.83837,-1.46778 2.84943,-5.31508 0.0197,-6.86364 -2.23028,-1.22052 -5.9028,-0.52569 -7.03498,1.33101 -0.61945,1.01585 -0.6085,2.66455 0.026,3.90818 0.50305,0.98606 1.44856,1.65258 2.87255,2.02496 1.00845,0.26372 3.25492,0.0452 4.11675,-0.40051 z M 52.892546,116.87218 c 2.181293,-1.26599 3.132257,-3.94382 1.967818,-5.5412 -1.604443,-2.20098 -6.381868,-2.52102 -8.343931,-0.55895 -3.614528,3.61453 1.774862,8.77066 6.376113,6.10015 z M 156.375,81.985397 c 1.60484,-0.963704 2.625,-2.486055 2.625,-3.917208 0,-1.112612 -1.13227,-2.716593 -2.3254,-3.294177 -1.50094,-0.726594 -3.7043,-0.71019 -5.16949,0.03849 -1.5577,0.795945 -2.13011,1.679143 -2.13011,3.28665 0,2.156273 1.58354,3.932149 3.9002,4.373905 1.29993,0.24788 2.07903,0.125313 3.0998,-0.487658 z M 92.208807,72.485479 c 1.433053,-0.307335 2.524803,-1.045017 3.548658,-2.397784 0.984957,-1.301376 0.948882,-2.107852 -0.14863,-3.322669 -1.950878,-2.159386 -4.907353,-2.85737 -7.132015,-1.683771 -3.41189,1.799912 -2.673025,6.488457 1.164252,7.387893 1.336495,0.313266 1.18759,0.312319 2.567735,0.01633 z"
           id="path58" />
        <path
           style="display:inline;fill:#4cac33;fill-opacity:1;stroke-width:2.07968;stroke-linejoin:round;stroke-dasharray:none"
           d="m 32.625,106.70441 c -1.806236,-0.68158 -4.81675,-3.13315 -5.52183,-4.49663 -0.637613,-1.233 -0.435812,-2.01501 1.127009,-4.367338 1.765858,-2.65793 2.925416,-5.22554 5.008554,-11.090442 2.803949,-7.894289 4.287268,-10.218304 7.856329,-12.309037 2.374815,-1.391151 4.23252,-2.821014 6.897128,-5.308672 2.674074,-2.496496 4.020015,-3.207767 6.322372,-3.341102 2.240543,-0.129754 3.84777,0.63223 5.814685,2.756734 2.43061,2.625349 2.650175,3.891314 1.040848,6.001284 -1.569383,2.057601 -2.56681,2.623651 -7.153073,4.059437 -2.92493,0.915685 -6.001734,2.402985 -7.187788,3.474514 -1.248917,1.128321 -2.284859,3.342582 -3.432807,7.337408 -1.277743,4.446511 -1.726367,7.297314 -1.533945,9.747521 0.116903,1.488573 0.06607,2.268873 -0.187303,2.875003 -0.452865,1.08336 -3.057288,3.48421 -4.578492,4.22061 -1.361677,0.65918 -3.368576,0.85697 -4.471687,0.44071 z m 4.713534,-2.77476 c 1.266086,-0.70778 1.913492,-1.59004 2.080509,-2.83524 0.177774,-1.325403 -0.392224,-2.607825 -1.552428,-3.492755 -0.773846,-0.59024 -1.236504,-0.73121 -2.664649,-0.811908 -2.182782,-0.12334 -3.599872,0.384928 -4.811072,1.72558 -0.758098,0.839125 -0.890755,1.163013 -0.88996,2.172893 0.0016,1.97322 1.126234,3.25373 3.374066,3.84155 1.170417,0.30607 3.37202,0.0101 4.463534,-0.60012 z M 56,75.967401 c 3.719605,-2.256122 4.33531,-4.202847 1.99732,-6.315081 -1.587135,-1.43388 -2.874508,-1.97442 -4.400903,-1.847839 -1.453637,0.120547 -3.046171,1.004877 -3.753409,2.084258 -0.625636,0.954841 -0.734612,2.862288 -0.224896,3.936434 0.474538,1.000015 1.062812,1.452301 2.81334,2.162995 C 53.993057,76.622161 54.9295,76.616711 56,75.967401 Z"
           id="path59" />
        <path
           style="display:inline;fill:#4cac33;fill-opacity:1;stroke-width:2.07968;stroke-linejoin:round;stroke-dasharray:none"
           d="m 195.30124,115.53626 c -1.6507,-0.5824 -2.93878,-1.59725 -3.98534,-3.13993 -1.03856,-1.53089 -1.36407,-2.77365 -1.16659,-4.45389 0.29505,-2.51041 -0.66964,-7.38387 -3.93458,-19.876883 l -2.04092,-7.80944 -7.89941,-5.203712 c -4.34467,-2.86204 -9.8119,-6.40018 -12.1494,-7.862528 l -4.25,-2.658817 -3.75,-0.653205 c -9.81041,-1.708858 -26.28112,-4.769067 -31,-5.759714 C 115.34655,56.065326 111.99092,54.95202 95.789065,48.385264 90.5168,46.248369 86.0091,44.5 85.771955,44.5 c -0.738478,0 -14.429723,3.207361 -17.72635,4.15264 -4.019125,1.152447 -9.137123,2.906069 -11.11943,3.809941 -6.081165,2.772825 -12.66416,8.793496 -12.673829,11.591219 -0.0053,1.531602 -2.963022,3.626282 -5.939846,4.206632 -3.553709,0.69282 -7.241139,-0.97691 -8.42483,-3.814902 -1.070184,-2.56585 0.234526,-4.946274 3.90356,-7.121988 2.899357,-1.7193 5.29176,-3.858318 8.246478,-7.373074 3.330492,-3.961754 6.050165,-6.809488 7.15595,-7.492901 0.75361,-0.465757 1.302127,-0.550655 3.904071,-0.60426 3.925738,-0.08088 7.336706,-0.695105 19.152271,-3.44883 8.649337,-2.015807 12.614585,-2.740815 13.976065,-2.555389 1.702945,0.231931 10.46048,3.239714 18.273935,6.276199 15.7954,6.138449 18.37126,6.801543 44.25,11.391107 7.08125,1.255851 13.1,2.40295 13.375,2.549108 1.20876,0.642438 20.63709,12.849848 23.7763,14.93937 6.31847,4.20571 7.34944,5.012998 7.97041,6.24112 0.82132,1.624365 2.68218,7.543055 4.15737,13.223025 2.48423,9.565083 4.09537,14.211313 5.75525,16.597063 1.88965,2.71601 1.77489,3.65012 -0.73372,5.97221 -2.72658,2.52385 -5.31302,3.35758 -7.74937,2.49797 z m 5.09024,-2.56251 c 1.1195,-0.52182 2.10852,-1.96572 2.10852,-3.07832 0,-2.42192 -2.24282,-4.14881 -5.375,-4.13855 -4.191,0.0137 -6.36339,4.1955 -3.49008,6.71829 1.45987,1.28179 4.58198,1.51218 6.75656,0.49858 z M 38.431095,66.122302 c 3.185858,-0.946097 3.964005,-4.139187 1.518773,-6.232214 -2.521727,-2.158505 -6.186728,-1.538101 -8.113491,1.373434 -0.816935,1.234473 -0.669325,1.91455 0.737582,3.398245 1.6475,1.737418 3.42893,2.181635 5.857136,1.460535 z M 53.712882,52.144194 c 1.055945,-0.546051 2.720183,-2.486895 2.999313,-3.497817 0.510437,-1.848651 -0.394718,-3.261657 -2.837195,-4.429051 -2.202307,-1.052602 -3.042555,-0.953041 -4.830148,0.572328 -2.202791,1.879662 -2.678691,4.037972 -1.232352,5.588998 0.866511,0.92923 3.355068,2.093307 4.512415,2.110781 0.384953,0.0058 1.009538,-0.149546 1.387967,-0.345239 z"
           id="path60" />
        <path
           style="display:inline;fill:#4cac33;fill-opacity:1;stroke-width:2.07968;stroke-linejoin:round;stroke-dasharray:none"
           d="m 164.75,53.643082 c -0.89375,-0.31767 -2.14668,-0.807877 -2.78428,-1.08935 -2.56429,-1.132017 -7.03032,-2.149922 -16.1634,-3.683987 -12.15818,-2.042188 -14.75495,-3.131595 -15.28921,-6.414183 -0.29836,-1.833182 -0.76026,-2.8816 -2.25253,-5.112731 -0.68596,-1.025594 -1.36705,-2.309792 -1.51353,-2.853774 -0.33943,-1.260561 0.0169,-2.680147 0.87514,-3.486418 1.37151,-1.28847 0.57468,-1.832505 -4.02059,-2.74506 -4.73943,-0.941181 -33.224363,-5.775444 -34.1016,-5.787483 -0.48125,-0.0066 -5.6,0.88986 -11.375,1.992144 -5.775,1.102284 -14.325,2.690941 -19,3.530347 -13.56823,2.436206 -13.56878,2.436328 -15.75,3.477025 -3.598719,1.71701 -6.970677,4.870269 -8.915403,8.337168 -2.081635,3.710967 -2.758476,4.541272 -4.084597,5.010717 -1.781873,0.63078 -5.501449,0.473955 -7.306763,-0.30807 -1.712926,-0.742005 -3.20659,-2.358727 -3.436515,-3.719642 -0.452931,-2.680871 2.334434,-6.570437 5.118278,-7.142186 0.931573,-0.191328 4.35713,-3.03894 8.516018,-7.079233 l 3.694869,-3.589507 19.317993,-3.61087 C 81.816177,14.594622 82.541947,14.481046 88.5,14.325683 c 5.846292,-0.152449 7.023142,-0.01809 21.375,2.440427 15.27552,2.616739 25.38291,4.708022 27.13611,5.614633 1.40519,0.726656 1.90243,1.650302 2.05037,3.808648 0.11435,1.668294 0.28612,2.268618 1.06237,3.712837 l 0.92596,1.722772 -0.15781,3.163139 -0.1578,3.16314 0.64449,0.506958 c 0.79095,0.622163 2.49552,1.016718 9.24631,2.140233 7.11535,1.184185 9.48486,1.414412 14.28745,1.388195 5.05867,-0.02762 6.05783,0.236465 7.97979,2.109097 2.45371,2.390738 2.33829,4.320505 -0.43579,7.286003 -1.71296,1.831165 -3.56736,2.875287 -5.06804,2.85357 -0.55737,-0.0081 -1.74466,-0.27458 -2.63841,-0.592253 z m 5.28055,-2.830957 c 1.27965,-0.572373 1.90207,-1.205478 2.19735,-2.235078 0.29308,-1.021917 -0.15176,-1.94815 -1.63193,-3.39798 -1.60993,-1.576912 -2.57811,-1.865092 -4.44383,-1.322712 -4.09466,1.19035 -5.29162,6.260405 -1.74732,7.401212 1.13695,0.36595 4.38705,0.108608 5.62573,-0.445442 z M 28.208806,43.48548 c 1.433053,-0.307335 2.524805,-1.045018 3.548659,-2.397785 0.984959,-1.301375 0.948883,-2.107852 -0.148631,-3.322669 -1.950876,-2.159386 -4.907353,-2.85737 -7.132013,-1.683771 -3.411891,1.799912 -2.673027,6.488457 1.164252,7.387892 1.336495,0.313268 1.187589,0.31232 2.567733,0.01633 z M 136,37.967401 c 3.7196,-2.256122 4.33531,-4.202847 1.99732,-6.315081 -1.58714,-1.43388 -2.87451,-1.97442 -4.4009,-1.847839 -1.45364,0.120547 -3.04618,1.004877 -3.75341,2.084258 -0.62564,0.954841 -0.73462,2.862288 -0.2249,3.936434 0.47454,1.000015 1.06281,1.452301 2.81334,2.162995 1.56161,0.633993 2.49805,0.628543 3.56855,-0.02077 z"
           id="path61" />
        <path
           style="display:inline;fill:#4cac33;fill-opacity:1;stroke-width:2.94112;stroke-linejoin:round;stroke-dasharray:none"
           d="m 83.4386,161.93312 c -1.847317,-0.13151 -3.756505,-0.36398 -4.242641,-0.51658 -2.261918,-0.71005 -3.530706,-2.67174 -10.465111,-16.18021 -5.403391,-10.526 -7.827669,-14.69253 -9.316363,-16.01173 -0.438358,-0.38845 -1.028633,-1.15417 -1.31172,-1.7016 -0.47534,-0.91921 -0.448105,-1.10855 0.356105,-2.47571 2.068707,-3.51681 5.07641,-4.7952 8.829686,-3.75298 1.949437,0.54133 4.044255,2.56576 4.495401,4.34436 1.154649,4.55208 2.748852,8.41967 7.114715,17.26051 l 4.857245,9.83588 h 35.156423 35.15643 l 3.18595,-4.75452 c 3.14469,-4.69295 4.07803,-6.5821 4.47857,-9.06491 0.4842,-3.00133 4.11509,-5.46542 7.97234,-5.41039 3.39709,0.0485 5.54332,1.6082 6.90879,5.02084 l 0.59352,1.48336 -3.89114,4.04761 c -4.76911,4.96089 -7.57581,8.68606 -10.41606,13.82467 l -2.1727,3.93087 -24.59097,0.23393 c -28.40839,0.27024 -47.898584,0.2283 -52.69847,-0.1134 z m 87.4766,-18.7793 c 3.3606,-0.93305 4.39007,-3.82988 2.20744,-6.21154 -1.02212,-1.11533 -1.43775,-1.30816 -3.12028,-1.44769 -2.52426,-0.20933 -4.53535,0.74683 -5.39906,2.56695 -0.86096,1.81434 -0.46653,3.16301 1.29911,4.44204 1.54883,1.12196 2.75177,1.278 5.01279,0.65024 z M 67.099057,129.72764 c 1.38548,-0.48298 2.197407,-1.71824 2.197407,-3.34311 0,-2.49604 -1.502628,-3.7015 -4.613992,-3.7015 -1.599172,0 -1.966927,0.14624 -3.022761,1.20208 -1.597308,1.59731 -1.603048,2.86677 -0.0199,4.40121 1.703919,1.65151 3.497748,2.1251 5.459246,1.44132 z"
           id="path62" />
      </g>
      <g
         id="g85"
         inkscape:label="subname">
        <path
           style="fill:#4cac33;fill-opacity:1;stroke-width:1.47056;stroke-linejoin:round;stroke-dasharray:none"
           d="m 13.112632,216.05228 c -0.434537,-0.43454 -0.516889,-1.04201 -0.639294,-4.71574 -0.05183,-1.55564 -0.175881,-3.11692 -0.275665,-3.46952 -0.258738,-0.91428 -0.89423,-1.46428 -2.070452,-1.7919 -0.5627719,-0.15675 -1.2138692,-0.46302 -1.4468833,-0.68061 l -0.4236622,-0.3956 0.4616442,-0.39709 c 0.7332167,-0.63069 2.2050173,-0.86754 5.3354273,-0.85861 2.096548,0.006 3.125753,0.087 3.977476,0.31329 1.133784,0.30117 1.947029,0.74676 2.077547,1.13831 0.07273,0.2182 -0.974814,0.80266 -1.790839,0.99917 -1.347855,0.32459 -1.918011,1.67227 -2.228694,5.26796 -0.301953,3.49465 -0.765763,4.57924 -2.069768,4.84004 -0.41396,0.0828 -0.635285,0.0219 -0.906837,-0.2497 z"
           id="path63" />
        <path
           style="fill:#4cac33;fill-opacity:1;stroke-width:1.47056;stroke-linejoin:round;stroke-dasharray:none"
           d="m 21.566757,210.07846 v -6.47299 l 3.491339,0.0848 c 3.440598,0.0836 4.408628,0.23402 4.987629,0.77521 0.452643,0.42308 -0.145984,0.75648 -2.038772,1.1355 -2.241966,0.44893 -2.275578,0.46038 -2.905616,0.99053 -0.658384,0.55399 -0.725458,1.35729 -0.139514,1.67088 0.214424,0.11475 1.06418,0.277 1.888346,0.36053 2.206382,0.22364 2.920945,0.84954 1.769387,1.54985 -0.301729,0.18349 -0.916371,0.38877 -1.36587,0.45618 -0.977925,0.14664 -2.065337,0.6703 -2.217981,1.06808 -0.0606,0.15793 -0.110191,0.552 -0.110191,0.8757 0,1.00047 1.066583,1.67351 3.086975,1.94795 0.482496,0.0656 1.178554,0.23972 1.546796,0.38706 2.050553,0.82047 -0.853493,1.63894 -5.827014,1.64227 l -2.165514,0.001 z"
           id="path64" />
        <path
           style="fill:#4cac33;fill-opacity:1;stroke-width:1.47056;stroke-linejoin:round;stroke-dasharray:none"
           d="m 35.936703,216.06449 c -1.846674,-0.61847 -3.320796,-2.11218 -3.784699,-3.83498 -0.312218,-1.15949 -0.124364,-3.2249 0.394743,-4.34012 0.673936,-1.44784 2.086055,-2.89394 3.488328,-3.57227 1.036925,-0.5016 1.354591,-0.56974 2.679021,-0.57467 1.781104,-0.007 2.515825,0.30612 3.676062,1.56483 1.156116,1.25424 1.043548,1.35715 -0.969248,0.88606 -3.393203,-0.79417 -6.049967,0.87945 -6.061689,3.81854 -0.01305,3.27259 2.195633,4.8179 5.708136,3.99371 1.24492,-0.29212 2.066157,-0.36184 2.066157,-0.17542 0,0.40466 -1.270186,1.5997 -2.112583,1.9876 -1.291508,0.5947 -3.696699,0.71142 -5.084228,0.24672 z"
           id="path65" />
        <path
           style="fill:#4cac33;fill-opacity:1;stroke-width:1.47056;stroke-linejoin:round;stroke-dasharray:none"
           d="m 45.832792,216.33723 c -1.055643,-0.50945 -1.461377,-3.16108 -1.130332,-7.38718 0.302481,-3.86146 0.867695,-5.12652 2.29046,-5.12652 0.405565,0 0.786306,0.11183 0.917033,0.26934 0.122944,0.14814 0.284418,0.93732 0.358831,1.75373 0.07441,0.81641 0.188073,1.65068 0.252579,1.85392 0.18645,0.58745 1.003667,0.89598 2.373228,0.89598 2.088013,0 2.336744,-0.25529 2.643874,-2.7136 0.129589,-1.03724 0.274038,-1.49492 0.571884,-1.81196 0.663147,-0.70589 1.447004,-0.47116 1.830305,0.54808 0.252527,0.67151 0.420786,5.39981 0.281508,7.91076 -0.187697,3.38388 -0.579293,4.2526 -1.725783,3.82848 -0.577643,-0.21368 -0.775919,-0.75036 -1.023016,-2.76901 -0.144504,-1.18052 -0.325523,-1.94848 -0.500545,-2.1235 -0.593857,-0.59385 -3.525859,-0.5964 -4.118687,-0.004 -0.324919,0.32492 -0.584195,1.37943 -0.589876,2.3991 -0.0054,0.9756 -0.365682,1.82457 -0.978907,2.30694 -0.534249,0.42024 -0.854714,0.45752 -1.452556,0.16901 z"
           id="path66" />
        <path
           style="fill:#4cac33;fill-opacity:1;stroke-width:1.47056;stroke-linejoin:round;stroke-dasharray:none"
           d="m 66.720671,216.37087 c -1.418039,-0.20033 -2.197177,-0.80726 -2.197177,-1.71154 0,-0.56795 0.642567,-0.67726 2.386485,-0.40598 2.06584,0.32137 2.916815,0.0589 2.916815,-0.89963 0,-0.65852 -0.860591,-1.51633 -2.456095,-2.44816 -2.629281,-1.53558 -3.477503,-3.53403 -2.26417,-5.3345 0.554949,-0.82349 1.389079,-1.33792 2.565654,-1.58231 2.001237,-0.41568 4.541097,0.1372 4.541097,0.98852 0,0.54729 -0.741699,0.8002 -1.982999,0.67619 -2.020616,-0.20188 -2.813799,0.54799 -1.949387,1.84293 0.241643,0.36199 0.771347,0.85704 1.17712,1.10011 3.197702,1.9155 4.023283,3.0527 3.652204,5.03072 -0.131875,0.70295 -0.965951,1.75598 -1.674481,2.11404 -1.026321,0.51867 -3.326375,0.82579 -4.715066,0.62961 z"
           id="path67" />
        <path
           style="fill:#4cac33;fill-opacity:1;stroke-width:1.47056;stroke-linejoin:round;stroke-dasharray:none"
           d="m 79.461124,216.30417 c -1.171466,-0.37048 -1.778925,-0.75978 -2.546794,-1.63212 -1.036457,-1.17748 -1.510083,-2.79457 -1.384348,-4.72656 0.180619,-2.77532 1.221988,-4.42091 3.461159,-5.46938 2.371248,-1.11032 5.725256,-0.79931 7.70995,0.71492 1.83276,1.39832 2.693821,3.18726 2.528059,5.2523 -0.265596,3.30876 -3.93276,6.13693 -7.904817,6.0963 -0.635856,-0.007 -1.4743,-0.11246 -1.863209,-0.23546 z m 4.272697,-2.26178 c 1.131256,-0.54024 1.66658,-1.49178 1.78713,-3.17663 0.179562,-2.50961 -0.914677,-4.719 -2.48288,-5.01319 -2.502967,-0.46956 -4.553143,1.38413 -4.697737,4.24752 -0.0735,1.45546 0.308737,2.48949 1.259191,3.40637 1.261168,1.21662 2.399834,1.36423 4.134296,0.53593 z"
           id="path68" />
        <path
           style="fill:#4cac33;fill-opacity:1;stroke-width:1.47056;stroke-linejoin:round;stroke-dasharray:none"
           d="m 91.601678,210.76201 c 0.05386,-5.46731 0.07726,-5.82386 0.4205,-6.40815 0.469749,-0.79965 1.190607,-0.85384 1.730942,-0.13012 0.325358,0.43578 0.381021,0.86574 0.514929,3.97748 0.08257,1.91888 0.228604,3.7875 0.324508,4.1525 0.233761,0.88965 0.764583,1.19681 2.567149,1.48546 3.113304,0.49853 3.407284,1.39353 0.683784,2.08169 -0.88084,0.22256 -4.736028,0.63058 -5.958124,0.63058 -0.330677,0 -0.339044,-0.17077 -0.283688,-5.78944 z"
           id="path69" />
        <path
           style="fill:#4cac33;fill-opacity:1;stroke-width:1.47056;stroke-linejoin:round;stroke-dasharray:none"
           d="m 105.59765,216.36 c -2.33147,-0.29337 -3.73533,-1.64382 -4.54384,-4.371 -0.66453,-2.24151 -0.52075,-5.25386 0.33101,-6.93472 0.46541,-0.91843 0.85838,-1.23075 1.54858,-1.23075 0.95439,0 1.25368,0.91503 1.53659,4.69786 0.36756,4.91459 0.63966,5.55519 2.35965,5.55519 1.15968,0 1.78787,-0.41915 2.06534,-1.37806 0.10422,-0.36018 0.34895,-1.84812 0.54384,-3.30653 0.44019,-3.29403 0.7499,-4.41506 1.39911,-5.06426 0.67454,-0.67455 1.63051,-0.70285 2.05124,-0.0607 0.62305,0.9509 0.51187,5.64767 -0.18891,7.98012 -0.91435,3.04327 -3.53642,4.56163 -7.10261,4.11289 z"
           id="path70" />
        <path
           style="fill:#4cac33;fill-opacity:1;stroke-width:1.47056;stroke-linejoin:round;stroke-dasharray:none"
           d="m 119.48211,216.31027 c -0.66641,-0.33176 -0.87299,-1.33217 -1.02879,-4.98225 -0.18097,-4.2395 -0.33947,-4.61722 -2.18294,-5.20188 -0.83725,-0.26554 -1.71908,-0.99433 -1.71908,-1.42073 0,-0.5965 1.07868,-0.79365 4.33103,-0.79158 3.05185,0.002 5.02327,0.24043 5.95034,0.71984 0.95072,0.49164 0.46392,1.10718 -1.26576,1.60051 -2.00284,0.57125 -2.09178,0.78577 -2.2959,5.53757 -0.0774,1.80241 -0.23288,3.52467 -0.34545,3.82726 -0.26146,0.70278 -0.86404,0.9997 -1.44345,0.71126 z"
           id="path71" />
        <path
           style="fill:#4cac33;fill-opacity:1;stroke-width:1.47056;stroke-linejoin:round;stroke-dasharray:none"
           d="m 128.51278,216.31747 c -0.75883,-0.37832 -0.92475,-1.38972 -0.94764,-5.77643 -0.0241,-4.62577 0.10156,-5.82462 0.68139,-6.49871 0.35947,-0.4179 0.4724,-0.45488 0.91464,-0.29952 0.9181,0.32254 1.02781,0.99924 1.03054,6.35629 0.002,4.0723 -0.0406,4.8682 -0.29101,5.42166 -0.37293,0.82436 -0.81893,1.08038 -1.38792,0.79671 z"
           id="path72" />
        <path
           style="fill:#4cac33;fill-opacity:1;stroke-width:1.47056;stroke-linejoin:round;stroke-dasharray:none"
           d="m 137.09914,216.10119 c -1.53557,-0.38646 -2.4702,-0.99502 -2.90195,-1.88953 -1.17149,-2.42713 -0.86784,-6.27407 0.66192,-8.38584 1.09621,-1.51328 3.96933,-2.42554 6.38347,-2.02685 4.174,0.68932 6.39763,3.71577 5.58691,7.604 -0.14885,0.7139 -0.46636,1.63197 -0.70558,2.04017 -0.66236,1.13023 -1.88063,2.15772 -2.96219,2.49829 -1.32238,0.41641 -4.69015,0.50516 -6.06258,0.15976 z m 3.92819,-1.76381 c 0.49918,-0.14823 1.1487,-0.4724 1.44339,-0.72037 1.34918,-1.13526 1.44155,-4.85307 0.16438,-6.61615 -0.9223,-1.2732 -2.35255,-1.56334 -3.9773,-0.80683 -2.05559,0.95712 -2.98072,3.82848 -1.94166,6.02639 0.44984,0.95153 1.11933,1.67004 1.96518,2.10905 0.66731,0.34636 1.2003,0.34815 2.34601,0.008 z"
           id="path73" />
        <path
           style="fill:#4cac33;fill-opacity:1;stroke-width:1.47056;stroke-linejoin:round;stroke-dasharray:none"
           d="m 150.58495,216.42216 c -0.16168,-0.0371 -0.43952,-0.36129 -0.61743,-0.72039 -0.28208,-0.5694 -0.33147,-1.22956 -0.38609,-5.16073 -0.0683,-4.91362 0.0696,-6.1649 0.73047,-6.62777 1.40093,-0.98125 3.5674,0.63178 6.30035,4.6909 1.7201,2.55477 1.5841,2.36959 1.67129,2.2757 0.0376,-0.0405 0.15713,-0.99454 0.26557,-2.12005 0.24025,-2.49356 0.58303,-3.71064 1.25541,-4.45746 0.45756,-0.5082 0.53905,-0.53931 0.78326,-0.29896 0.4835,0.47585 0.64891,2.11778 0.64083,6.36087 -0.008,4.31807 -0.13046,5.40403 -0.65105,5.7847 -0.47725,0.34897 -0.83798,0.27483 -1.76859,-0.36348 -1.16305,-0.79774 -2.59373,-2.53633 -4.33325,-5.26587 -0.79801,-1.25217 -1.50219,-2.27667 -1.56485,-2.27667 -0.0627,0 -0.20947,1.2529 -0.32623,2.78423 -0.22853,2.99705 -0.42973,4.15017 -0.83174,4.76675 -0.3076,0.47178 -0.76879,0.71985 -1.16795,0.62823 z"
           id="path74" />
        <path
           style="fill:#4cac33;fill-opacity:1;stroke-width:1.47056;stroke-linejoin:round;stroke-dasharray:none"
           d="m 166.28113,216.36737 c -1.48526,-0.17659 -2.13062,-0.42982 -2.4889,-0.97662 -0.75685,-1.1551 -0.0268,-1.63527 2.02431,-1.33145 2.77269,0.41071 4.06586,0.16187 4.06586,-0.78235 0,-0.5698 -0.92847,-1.47134 -2.32114,-2.25381 -2.57639,-1.44754 -3.60088,-3.49403 -2.61868,-5.231 0.72122,-1.27544 2.6304,-2.14539 4.70822,-2.14539 1.88758,0 3.05686,0.94653 2.54826,2.0628 -0.19662,0.43152 -0.25694,0.44932 -1.1296,0.33317 -0.50704,-0.0675 -1.2515,-0.16422 -1.65435,-0.21498 -0.93701,-0.11804 -1.47725,0.16339 -1.47725,0.76956 0,0.73609 0.76814,1.552 2.37473,2.52243 2.2454,1.35628 3.02094,2.42642 2.89131,3.98959 -0.1971,2.3767 -3.04854,3.71867 -6.92277,3.25805 z"
           id="path75" />
        <path
           style="fill:#4cac33;fill-opacity:1;stroke-width:1.47056;stroke-linejoin:round;stroke-dasharray:none"
           d="m 181.80742,216.21913 c -0.72494,-0.3293 -1.31841,-1.0165 -1.31841,-1.52663 0,-0.48298 1.10633,-0.7927 2.83152,-0.7927 1.73193,0 2.53834,-0.25814 2.73421,-0.87527 0.23975,-0.75538 -0.69706,-1.63152 -2.54046,-2.37595 -1.45953,-0.58941 -2.23182,-1.18981 -2.69283,-2.09346 -0.74914,-1.46843 -0.017,-3.28617 1.67875,-4.16769 1.1334,-0.5892 3.15676,-0.73112 4.56929,-0.32048 1.49809,0.4355 2.6206,1.68215 1.79866,1.99756 -0.15561,0.0597 -0.9506,0.005 -1.76666,-0.12225 -1.65363,-0.25724 -2.59112,-0.10158 -3.15751,0.52427 -0.55301,0.61107 -0.23459,1.20367 0.92683,1.72485 1.52662,0.68506 3.81354,2.25525 4.62139,3.17301 0.53623,0.60919 0.71952,0.96856 0.71952,1.41074 0,2.19555 -5.86323,4.59824 -8.4043,3.444 z"
           id="path76" />
        <path
           style="fill:#4cac33;fill-opacity:1;stroke-width:1.47056;stroke-linejoin:round;stroke-dasharray:none"
           d="m 191.27238,216.1979 c -0.49806,-0.49807 -0.44422,-1.11951 0.27639,-3.18976 1.43269,-4.11601 3.10805,-7.27403 4.57756,-8.62857 0.83128,-0.76625 1.27839,-0.87884 2.16142,-0.54427 0.95864,0.36323 1.27858,0.91209 2.88461,4.94873 3.03125,7.61884 3.0859,8.02128 1.04251,7.67605 -0.90105,-0.15223 -1.5055,-0.68819 -1.79095,-1.58801 -0.34557,-1.08935 -1.02567,-1.36026 -3.22952,-1.28646 -2.05594,0.0688 -3.06176,0.48982 -3.53052,1.47765 -0.33122,0.69799 -1.2328,1.48819 -1.69795,1.48819 -0.187,0 -0.49909,-0.1591 -0.69355,-0.35355 z m 6.73112,-5.11293 c 0.56116,-0.56116 0.60924,-0.82247 0.33379,-1.8142 -0.28977,-1.04333 -1.80657,-2.05059 -2.0136,-1.33718 -0.0353,0.12153 -0.23165,0.74365 -0.4364,1.38248 -0.20475,0.63883 -0.37227,1.28943 -0.37227,1.44578 0,0.49342 0.52126,0.83985 1.26367,0.83985 0.54691,0 0.82569,-0.11761 1.22481,-0.51673 z"
           id="path77" />
        <path
           style="fill:#4cac33;fill-opacity:1;stroke-width:1.47056;stroke-linejoin:round;stroke-dasharray:none"
           d="m 208.58044,215.92327 c -0.44636,-0.1375 -1.18596,-0.57955 -1.64356,-0.98235 -3.21445,-2.82947 -2.3194,-8.42256 1.68512,-10.53011 0.83911,-0.44161 1.12769,-0.49756 2.53776,-0.49199 1.23207,0.005 1.7764,0.0905 2.41286,0.37962 1.04067,0.47271 1.56462,0.99446 1.56462,1.55802 0,0.52273 -0.34857,0.56013 -2.25062,0.24151 -1.46555,-0.2455 -2.42562,-0.0289 -3.30869,0.74644 -1.89758,1.6661 -1.57773,5.51966 0.57266,6.89941 0.78653,0.50466 0.90545,0.52882 2.15822,0.43836 0.7292,-0.0527 1.66391,-0.14609 2.07713,-0.20763 0.72319,-0.1077 0.7513,-0.0943 0.7513,0.35707 0,0.63464 -0.73288,1.27741 -1.82697,1.60232 -1.1107,0.32984 -3.643,0.32413 -4.72983,-0.0107 z"
           id="path78" />
      </g>
      <path
         style="fill:#3362ab;fill-opacity:1;stroke-width:5.88224;stroke-linejoin:round;stroke-dasharray:none"
         d="m 97.313176,147.69351 c -0.63066,-0.90039 -1.146654,-2.84695 -1.146654,-4.32567 0,-3.34451 -1.510954,-4.0678 -8.497572,-4.0678 h -4.869974 l -0.210519,-4.41942 -0.210517,-4.41942 -3.35555,-0.3857 c -6.010396,-0.69086 -5.85609,-3.03064 0.268823,-4.07624 3.389074,-0.57856 3.881762,-1.44833 3.120133,-5.50817 -0.403531,-2.151 -0.694123,-2.40426 -2.758726,-2.40426 -1.269225,0 -2.913336,-0.44286 -3.653578,-0.98414 -1.976056,-1.44493 -0.277907,-3.1275 3.428766,-3.39731 l 2.950132,-0.21474 v -3.85113 -3.85112 l -3.535534,-0.75007 c -4.417762,-0.93723 -4.739403,-2.56042 -0.707107,-3.5685 3.976934,-0.99423 4.594725,-1.54505 4.607022,-4.107593 0.006,-1.241001 0.259147,-2.64726 0.562649,-3.125019 0.324062,-0.510125 3.092185,-1.063922 6.706687,-1.341755 l 6.154865,-0.4731 v -3.35288 c 0,-2.180192 0.446986,-3.904885 1.277996,-4.93114 1.200642,-1.482729 1.350443,-1.505813 2.474874,-0.381381 0.830458,0.830461 1.196878,2.37203 1.196878,5.035456 v 3.83858 h 4.85841 4.85842 l 0.47282,-4.179248 c 0.48714,-4.305736 1.72104,-6.185152 3.58993,-5.467994 0.79121,0.303617 1.06966,1.520682 1.06966,4.675302 v 4.264833 h 5.22183 5.22182 l 0.47973,-3.839602 c 0.86188,-6.898228 4.22744,-6.886045 5.21515,0.01888 l 0.49595,3.46717 h 3.87162 3.87161 l 0.50336,-3.518909 c 0.46819,-3.273076 2.1668,-5.730512 3.42395,-4.953552 0.28573,0.17659 0.74147,2.393783 1.01277,4.927097 0.49218,4.595947 0.49816,4.606037 2.73507,4.61217 1.23301,0.0034 3.91236,0.206802 5.95413,0.452047 3.41308,0.409959 3.71309,0.594703 3.72196,2.291951 0.0181,3.454798 0.8084,5.031177 2.72649,5.438257 3.28402,0.69696 5.04204,1.65341 5.04204,2.74312 0,1.07376 -1.43301,1.60231 -5.3033,1.95606 -1.79668,0.16422 -2.15367,0.52463 -2.33269,2.355 -0.35285,3.60782 0.92962,5.97062 3.2407,5.97062 1.10201,0 2.62133,0.45588 3.37625,1.01306 1.92191,1.41849 0.57414,2.58694 -3.51567,3.04792 l -3.24347,0.36558 v 3.00344 c 0,3.39952 0.54501,3.99358 4.77297,5.20251 1.65286,0.47261 3.00521,1.15352 3.00521,1.51313 0,0.96944 -2.47656,2.11782 -4.56721,2.11782 -2.08921,0 -3.21097,2.10069 -3.21097,6.01311 0,2.27286 -0.14191,2.40425 -3.0052,2.78217 -1.65286,0.21816 -4.278,0.47631 -5.83363,0.57366 -3.03059,0.18965 -2.93233,0.0209 -4.32407,7.42484 -0.18677,0.99354 -0.80881,1.59099 -1.65649,1.59099 -1.07974,0 -1.45684,-0.68705 -1.84349,-3.35875 -0.62829,-4.34148 -1.32511,-5.12653 -4.55032,-5.12653 -3.09509,0 -3.96307,0.8456 -5.17904,5.04546 -1.58024,5.45801 -4.72046,3.71734 -4.72046,-2.61662 v -2.42884 h -4.88339 -4.88339 l -0.47874,3.48084 c -1.00424,7.30169 -3.68336,7.41456 -4.97532,0.20961 l -0.72516,-4.044 -4.6529,-0.20676 -4.6529,-0.20676 -0.41604,4.03106 c -0.22882,2.21708 -0.87243,4.48745 -1.430242,5.04526 -0.880859,0.88086 -1.164951,0.79897 -2.160852,-0.62288 z m 49.199054,-16.03052 c 5.68362,-3.53407 7.34413,-10.39013 3.8099,-15.73071 -1.00302,-1.51567 -2.75708,-3.23844 -3.8979,-3.82838 -2.14131,-1.10732 -2.44202,-1.69269 -3.2128,-6.2541 -0.89141,-5.27526 -8.39332,-10.390385 -15.23869,-10.390385 -3.45593,0 -8.57227,1.593134 -11.25799,3.505534 -1.29844,0.924573 -4.05506,1.818761 -6.80942,2.208821 -6.98736,0.98953 -10.085037,3.06097 -12.603094,8.42778 -0.686811,1.46382 -2.520776,3.34149 -4.489213,4.59619 -7.64808,4.87498 -8.717536,12.6282 -2.356468,17.08366 2.996872,2.0991 5.504253,2.28209 29.398045,2.14558 23.74242,-0.13564 24.07418,-0.1576 26.65763,-1.76399 z"
         id="path79"
         inkscape:label="chip" />
      <g
         id="g84"
         inkscape:label="name">
        <path
           style="display:inline;fill:#808080;fill-opacity:1;stroke-width:2.07968;stroke-linejoin:round;stroke-dasharray:none"
           d="m 32.808864,193.00418 c -1.08504,-0.46143 -1.121876,-0.96832 -0.98818,-13.59817 0.102621,-9.69423 0.191093,-12.00979 0.465508,-12.18367 0.542151,-0.34353 3.17601,-0.25515 3.913723,0.13133 1.386758,0.72651 2.90362,2.69451 9.031597,11.71775 2.121082,3.12322 3.921082,5.67363 4,5.66759 0.07892,-0.006 1.998642,-2.95917 4.266053,-6.5625 4.47029,-7.10411 6.601437,-10.10462 7.683957,-10.81849 0.49573,-0.3269 1.108303,-0.4464 2.148218,-0.41904 2.701792,0.0711 2.42026,-1.46473 2.42026,13.20287 V 193 h -1.483725 c -3.220495,0 -3.226125,-0.0126 -3.89185,-8.72729 -0.20387,-2.66876 -0.41326,-4.89488 -0.46531,-4.94693 -0.05205,-0.0521 -1.140545,1.51273 -2.418875,3.47729 -4.155173,6.38575 -7.434314,10.44693 -8.435211,10.44693 -0.826684,0 -3.422821,-3.14941 -6.714652,-8.14562 -1.862944,-2.82751 -3.423265,-5.10457 -3.46738,-5.06015 -0.04412,0.0444 -0.265659,2.33077 -0.49232,5.08077 -0.630809,7.65341 -0.746364,7.92391 -3.43794,8.04779 -0.862255,0.0397 -1.822498,-0.0362 -2.133873,-0.16861 z"
           id="path80" />
        <path
           style="display:inline;fill:#808080;fill-opacity:1;stroke-width:2.07968;stroke-linejoin:round;stroke-dasharray:none"
           d="m 82.494387,192.99009 c -1.171837,-0.1046 -2.634337,-0.32422 -3.25,-0.48805 -3.025136,-0.80497 -5.777589,-3.10043 -6.711848,-5.59746 -1.36634,-3.65187 -1.356216,-10.93435 0.02031,-14.61346 1.458779,-3.89893 5.387658,-5.54587 13.197147,-5.53206 3.910248,0.007 9.164927,0.38242 10.56324,0.75487 1.978912,0.5271 4.949094,3.41955 6.137534,5.97692 0.54417,1.17097 0.65066,1.81305 0.74635,4.5 0.19111,5.36651 -0.8818,9.12439 -3.362214,11.77615 -2.00824,2.14696 -3.832213,2.77004 -9.433715,3.22256 -3.532615,0.28539 -4.714803,0.28547 -7.906808,5.3e-4 z m 9.124449,-5.89539 c 2.130769,-0.51809 3.526236,-1.41041 4.17236,-2.66799 1.046106,-2.03608 0.867326,-8.46157 -0.288302,-10.36185 -0.626492,-1.03019 -2.037276,-1.32647 -7.127894,-1.49695 -4.070769,-0.13632 -7.470077,0.14441 -8.736695,0.72152 -1.213456,0.55288 -1.714347,1.97544 -1.836952,5.21702 -0.181281,4.79296 0.705986,7.25495 2.964776,8.22665 2.319969,0.99803 7.52231,1.17136 10.852707,0.3616 z"
           id="path81" />
        <path
           style="display:inline;fill:#808080;fill-opacity:1;stroke-width:2.07968;stroke-linejoin:round;stroke-dasharray:none"
           d="m 109.09102,192.9576 c -1.3358,-0.6468 -1.69663,-3.74779 -1.50775,-12.9576 0.14264,-6.95509 0.4524,-10.60973 0.99525,-11.74236 0.52407,-1.09343 2.124,-1.29178 11.57388,-1.43484 11.18142,-0.16927 13.88828,0.15906 15.62439,1.89517 1.20368,1.20367 1.5713,2.92602 1.41948,6.65039 -0.18786,4.60852 -1.24868,6.20204 -5.63377,8.4629 -1.27188,0.65576 -2.30686,1.27136 -2.29996,1.36801 0.007,0.0966 1.56652,1.28145 3.46582,2.6329 3.87162,2.75483 5.11861,3.80867 4.9087,4.14832 -0.28019,0.45335 -2.78488,1.12023 -4.13706,1.1015 -1.81253,-0.0251 -3.60782,-0.7694 -6.375,-2.64295 -5.48474,-3.71349 -6.24713,-4.19287 -7.21981,-4.53972 -0.5666,-0.20204 -1.44875,-0.43527 -1.96033,-0.51828 -0.51158,-0.083 -1.27861,-0.44416 -1.70452,-0.80254 -1.16031,-0.97633 -1.40566,-0.53954 -1.96611,3.5001 -0.50232,3.62068 -0.85578,4.52468 -1.92858,4.93256 -0.80878,0.3075 -2.56878,0.27854 -3.25463,-0.0536 z m 6.3956,-13.06648 c 0.4959,-0.59752 3.58296,-1.14444 7.97604,-1.41307 6.46656,-0.39544 6.59088,-0.46533 6.96484,-3.91555 l 0.22354,-2.0625 h -8.22889 -8.22889 l 0.11436,3.4375 c 0.13707,4.1203 0.37592,4.92127 1.179,3.95362 z"
           id="path82" />
        <path
           style="display:inline;fill:#808080;fill-opacity:1;stroke-width:2.07968;stroke-linejoin:round;stroke-dasharray:none"
           d="m 143.61122,193.24383 c -0.42007,-0.12808 -1.02768,-0.51379 -1.35024,-0.85714 -0.51283,-0.54589 -0.60159,-0.93846 -0.70697,-3.12682 -0.22899,-4.75549 0.89181,-13.93481 1.97703,-16.19185 0.66988,-1.3932 2.64118,-3.13604 4.60984,-4.0756 3.73819,-1.78407 8.38534,-2.32967 16.98412,-1.99399 3.025,0.11808 5.52812,0.223 5.5625,0.23313 0.0344,0.0101 0.0625,5.82698 0.0625,12.92632 v 12.90787 l -1.92063,-0.12326 c -2.36237,-0.1516 -2.85536,-0.59587 -3.3002,-2.97404 -0.16393,-0.8764 -0.35899,-1.90283 -0.43348,-2.28095 L 164.96027,187 h -8.06535 -8.06536 l -0.31929,1.4375 c -0.44634,2.0095 -1.19092,3.92225 -1.70954,4.39159 -0.55702,0.5041 -2.19703,0.71735 -3.18951,0.41474 z M 165.5,176.625 V 172.5 h -5.07248 c -5.74494,0 -7.29327,0.26345 -9.07703,1.54445 -1.19005,0.85462 -2.72725,2.92031 -2.99009,4.01805 -0.22027,0.92 0.0356,1.84031 0.57494,2.06779 0.89784,0.37869 3.86167,0.54967 10.12716,0.58422 L 165.5,180.75 Z"
           id="path83" />
        <path
           style="display:inline;fill:#808080;fill-opacity:1;stroke-width:2.07968;stroke-linejoin:round;stroke-dasharray:none"
           d="m 188.83808,193.01499 c -0.75775,-0.32453 -0.77961,-0.38451 -1.32854,-3.64528 -0.27161,-1.61343 -0.66718,-3.19806 -0.87904,-3.5214 -0.47637,-0.72704 -1.25789,-1.12875 -3.5055,-1.80189 -3.33953,-1.00016 -6.43126,-3.69363 -7.13825,-6.21874 -0.21131,-0.75472 -0.26783,-2.32626 -0.18126,-5.03945 0.12122,-3.79898 0.33046,-4.87017 1.04444,-5.3469 0.414,-0.27644 3.61441,-0.22801 4.15801,0.0629 0.66816,0.35759 0.91818,1.51254 1.37892,6.36988 0.22168,2.33702 0.42396,4.27003 0.44951,4.29558 0.16682,0.16681 11.32497,0.36774 12.47091,0.22457 0.78119,-0.0976 1.78787,-0.42372 2.2426,-0.72649 1.41922,-0.94496 1.75969,-2.02972 1.96926,-6.27413 0.10235,-2.07276 0.19616,-3.78875 0.20847,-3.8133 0.32844,-0.65491 0.99724,-0.83036 3.16525,-0.83036 H 205.25 l -0.005,4.1875 c -0.0107,9.03669 -0.92151,10.83592 -6.56001,12.95856 -2.97624,1.12042 -3.76285,1.88053 -4.16674,4.02639 -0.68298,3.62871 -0.80458,4.02447 -1.41173,4.59486 -0.49031,0.46062 -0.95325,0.60018 -2.17715,0.65633 -0.85493,0.0392 -1.79603,-0.0322 -2.09134,-0.15865 z"
           id="path84" />
      </g>
    </g>
  </g>
  <metadata
     id="metadata87">
    <rdf:RDF>
      <cc:Work
         rdf:about="">
        <dc:title>logoVectorización</dc:title>
      </cc:Work>
    </rdf:RDF>
  </metadata>
</svg>
